<svg width="960" height="960" viewBox="0 0 960 960" fill="none" xmlns="http://www.w3.org/2000/svg">
<g clip-path="url(#clip0_510_1394)">
<path fill-rule="evenodd" clip-rule="evenodd" d="M706.445 786.458C775.828 804.757 848.193 758.487 868.081 683.1C885.549 616.879 856.72 550.221 802.413 522.581L802.431 522.507C801.634 522.28 800.826 522.062 800.019 521.844L799.974 521.832C731.848 503.866 660.507 550.404 640.619 625.791C623.742 689.723 649.301 753.868 699.008 782.837C700.146 783.218 701.287 783.883 702.435 784.553C703.76 785.324 705.094 786.102 706.445 786.458ZM799.464 532.31C798.709 531.97 797.82 532.306 797.48 533.062C797.14 533.817 797.476 534.705 798.231 535.045C830.504 549.587 865.109 583.942 860.275 647.764C860.212 648.591 860.831 649.311 861.657 649.373C862.483 649.436 863.204 648.817 863.266 647.991C868.212 582.695 832.678 547.276 799.464 532.31Z" fill="#171717"/>
<path d="M799.66 182.301L847.104 228.276L781.564 305.538L737.557 273.263L799.66 182.301Z" fill="#171717"/>
<path d="M470.049 731.496L525.308 806.319L467.934 855.222L419.677 790.459L470.049 731.496Z" fill="url(#paint0_linear_510_1394)"/>
<path d="M377.712 272.579C377.435 272.718 376.677 273.106 375.587 273.706C376.677 273.152 377.425 272.745 377.712 272.579ZM499.618 210.587C468.276 199.603 423.28 203.834 406.518 219.907C393.032 232.849 394.713 287.673 397.77 326.119L397.558 326.138C397.558 326.138 376.958 341.62 364.358 331.191C356.912 325.039 364.016 315.7 371.082 309.076C374.674 306.886 377.965 304.237 380.874 301.197C377.427 303.588 374.154 306.221 371.082 309.076C364.644 312.91 356.275 315.176 350.012 307.284C340.026 294.712 367.138 278.371 375.479 273.761C369.521 276.745 353.938 283.479 348.709 275.11C343.909 267.425 359.157 255.259 367.517 249.375C369.314 248.398 371.021 247.264 372.617 245.984C372.617 245.984 370.511 247.278 367.517 249.375C360.801 253.075 349.282 256.515 344.793 240.34C338.271 216.859 380.44 219.907 380.44 219.907C380.44 219.907 369.133 164.261 383.04 159.707C396.947 155.153 403.907 186.865 402.605 175.567C401.303 164.269 423.472 143.403 431.038 144.267C438.604 145.131 420.858 201.641 433.901 171.647C446.944 141.653 497.806 134.263 508.235 139.482C514.635 142.682 499.135 160.913 490.194 170.409C489.201 171.201 488.258 172.053 487.368 172.958C480.975 179.517 484.218 176.773 490.194 170.409C508.531 155.721 549.425 153.509 555.194 163.388C561.272 173.827 506.938 193.817 518.678 191.212C530.418 188.607 539.537 194.251 548.672 198.925C557.807 203.599 588.227 248.595 563.887 260.548C539.547 272.501 547.804 247.726 521.287 222.942C515.627 217.662 508.126 213.561 499.618 210.587V210.587Z" fill="#171717"/>
<path d="M410.837 487.535C414.31 496.874 418.615 514.268 422.637 532.281C429.21 561.859 435 593.099 435 593.099C435 593.099 163.1 679.174 138.312 525.934C113.524 372.694 374.356 389.654 374.356 389.654C374.356 389.654 363.271 378.569 374.356 370.098C377.303 367.844 387.862 366.514 401.782 365.775C419.082 364.851 441.568 364.842 461.059 365.1C484.818 365.442 504.115 366.181 504.115 366.181V380.181C504.115 380.181 503.468 396.181 528.899 389.659C554.33 383.137 647.573 372.052 689.299 389.659C731.025 407.266 724.622 460.621 724.622 460.621L724.401 462.551C713.34 461.201 702.148 461.322 691.119 462.912L690.879 461.397C690.879 461.397 685.263 459.069 676.201 456.011L678.87 455.466C678.87 455.466 683.433 430.091 678.87 417.704C677.207 413.196 649.44 413.242 614.31 415.69V415.681L598.505 399.599C598.505 399.599 566.876 402.204 560.539 403.017C554.295 403.83 550.23 421.344 550.12 421.834V421.843C528.245 424.457 507.526 427.478 491.72 430.452L490.51 430.342C491.785 428.587 492.348 426.102 491.018 422.642C487.318 412.961 468.257 411.178 450.429 419.87C432.601 428.562 433.912 468.118 428.259 478.556C422.606 488.994 410.837 487.535 410.837 487.535Z" fill="url(#paint1_linear_510_1394)"/>
<path d="M150.922 629.828L281.336 659.388L260.899 835.445L134.399 806.754L150.922 629.828ZM245.578 815.128L262.205 677.222L177.105 647.874L157.554 791.392L245.578 815.128Z" fill="#171717"/>
<path d="M207.872 273.264L160.484 322.167L90.6016 254.687L141.898 198.93L207.872 273.264Z" fill="url(#paint2_linear_510_1394)"/>
<path d="M236.12 480.514C236.12 480.514 305.244 516.143 406.311 480.514C407.502 480.089 409.064 482.768 410.837 487.535C414.31 496.874 418.615 514.268 422.637 532.281C429.21 561.859 435 593.099 435 593.099C435 593.099 163.1 679.174 138.312 525.934C113.524 372.694 374.356 389.654 374.356 389.654C374.356 389.654 363.271 378.569 374.356 370.098C377.303 367.844 387.862 366.514 401.782 365.775C419.082 364.851 441.568 364.842 461.059 365.1C484.818 365.442 504.115 366.181 504.115 366.181V380.181C504.115 380.181 503.468 396.181 528.899 389.659C554.33 383.137 647.573 372.052 689.299 389.659C731.025 407.266 724.622 460.621 724.622 460.621" stroke="#171717" stroke-width="3" stroke-linecap="round" stroke-linejoin="round"/>
<path d="M829.062 498.6C829.83 498.96 830.586 499.348 831.344 499.746" stroke="#171717" stroke-width="3" stroke-linecap="round" stroke-linejoin="round"/>
<path d="M634.078 760.132C608.139 720.854 598.735 668.276 612.61 615.705C636.729 524.273 722.129 467.517 803.345 488.948C811.549 491.112 819.534 494.034 827.196 497.677" stroke="#171717" stroke-width="3" stroke-linecap="round" stroke-linejoin="round"/>
<path d="M831.594 499.877C894.861 532.827 927.894 613.082 906.732 693.3C882.6 784.732 797.212 841.487 715.987 820.056C681.487 810.948 653.293 789.203 634.125 760.188C634.107 760.178 634.094 760.161 634.088 760.142" stroke="#171717" stroke-width="3" stroke-linecap="round" stroke-linejoin="round"/>
<path d="M802.431 522.509C869.024 541.64 906.953 616.409 887.305 690.88C867.417 766.257 796.067 812.805 727.95 794.829C717.805 792.159 708.069 788.126 699.008 782.839C649.301 753.87 623.742 689.725 640.619 625.793C660.507 550.406 731.848 503.868 799.974 521.834C800.8 522.056 801.619 522.278 802.431 522.509Z" stroke="#171717" stroke-width="3" stroke-linecap="round" stroke-linejoin="round"/>
<path d="M802.413 522.582C856.72 550.22 885.55 616.882 868.082 683.101C848.194 758.488 775.828 804.758 706.445 786.459C703.923 785.794 701.457 783.659 699.009 782.838C698.999 782.828 698.986 782.821 698.972 782.819" stroke="#171717" stroke-width="3" stroke-linecap="round" stroke-linejoin="round"/>
<path d="M634.125 760.188C634.115 760.171 634.102 760.155 634.088 760.142C634.079 760.142 634.079 760.142 634.079 760.133C633.506 759.413 627.391 751.833 619.059 740.891C611.559 731.026 602.259 718.426 593.6 705.691C592.362 703.872 591.134 702.043 589.924 700.223C582.765 689.397 576.324 678.723 572.114 669.823C571.061 667.597 570.146 665.473 569.407 663.496C568.515 661.241 567.831 658.91 567.366 656.531C562.479 629.299 550.12 559.196 616.266 503.124C639.609 483.338 661.372 467.424 691.117 462.914C702.146 461.324 713.338 461.202 724.4 462.553C729.6 463.135 735.047 464.015 740.741 465.195C760.721 469.361 783.898 477.343 811.5 490.127C816.58 492.473 821.811 494.992 827.194 497.683C827.822 497.983 828.441 498.283 829.06 498.607C829.817 498.986 830.575 499.374 831.342 499.753C831.425 499.79 831.508 499.836 831.591 499.882" stroke="#171717" stroke-width="3" stroke-linecap="round" stroke-linejoin="round"/>
<path d="M560.539 600.269L541.5 549.13L535.5 533.011C531.617 522.592 531.199 511.199 534.308 500.523C540.359 479.84 554.28 448.312 583.664 443.13C614.748 437.643 654.94 448.83 676.196 456.007C685.258 459.065 690.874 461.393 690.874 461.393" stroke="#171717" stroke-width="3" stroke-linecap="round" stroke-linejoin="round"/>
<path d="M550.119 421.838C571.577 419.279 594.153 417.081 614.31 415.686C649.44 413.238 677.21 413.192 678.87 417.7C683.433 430.087 678.87 455.462 678.87 455.462" stroke="#171717" stroke-width="3" stroke-linecap="round" stroke-linejoin="round"/>
<path d="M491.72 430.457C507.526 427.483 528.245 424.457 550.12 421.848" stroke="#171717" stroke-width="3" stroke-linecap="round" stroke-linejoin="round"/>
<path d="M541.5 549.131C541.5 549.131 476.08 570.931 467.933 564.41C465.272 562.285 462.233 548.01 460.349 531.238" stroke="#171717" stroke-width="3" stroke-linecap="round" stroke-linejoin="round"/>
<path d="M150.922 629.828L281.336 659.388L260.903 835.445L134.405 806.754L150.922 629.828Z" stroke="#171717" stroke-width="3" stroke-linecap="round" stroke-linejoin="round"/>
<path d="M388.381 784.806L467.934 874.271L551.718 804.362L470.049 708.514L388.381 784.806Z" stroke="#171717" stroke-width="3" stroke-linecap="round" stroke-linejoin="round"/>
<path d="M160.484 322.167L207.872 273.264L141.898 198.93L90.6016 254.687L160.484 322.167Z" stroke="#171717" stroke-width="3" stroke-linecap="round" stroke-linejoin="round"/>
<path d="M718.971 269.355L773.74 327.062L880.359 239.029L786.072 159.707L718.971 269.355Z" stroke="#171717" stroke-width="3" stroke-linecap="round" stroke-linejoin="round"/>
<path d="M245.579 815.123L262.206 677.217L177.111 647.869L157.555 791.392L245.579 815.123Z" stroke="#171717" stroke-width="3" stroke-linecap="round" stroke-linejoin="round"/>
<path d="M467.934 855.222L525.308 806.319L470.049 731.496L419.677 790.459L467.934 855.222Z" stroke="#171717" stroke-width="3" stroke-linecap="round" stroke-linejoin="round"/>
<path d="M781.564 305.538L847.104 228.276L799.66 182.301L737.557 273.263L781.564 305.538Z" stroke="#171717" stroke-width="3" stroke-linecap="round" stroke-linejoin="round"/>
<path d="M385.878 393.351L494.99 390.311" stroke="#171717" stroke-width="3" stroke-linecap="round" stroke-linejoin="round"/>
<path d="M461.061 365.111V365.101C460.913 364.501 453.948 335.93 461.061 331.625C468.261 327.274 492.82 329.888 497.05 319.45C501.28 309.012 499.55 210.781 499.55 210.781" stroke="#171717" stroke-width="3" stroke-linecap="round" stroke-linejoin="round"/>
<path d="M371.088 309.076C364.022 315.7 356.918 325.039 364.364 331.191C376.964 341.62 397.564 326.138 397.564 326.138" stroke="#171717" stroke-width="3" stroke-linecap="round" stroke-linejoin="round"/>
<path d="M371.088 309.076C374.68 306.886 377.971 304.237 380.88 301.197C377.433 303.588 374.161 306.221 371.088 309.076V309.076Z" stroke="#171717" stroke-width="3" stroke-linecap="round" stroke-linejoin="round"/>
<path d="M375.484 273.762C367.143 278.372 340.031 294.713 350.017 307.285C356.28 315.174 364.649 312.911 371.087 309.077" stroke="#171717" stroke-width="3" stroke-linecap="round" stroke-linejoin="round"/>
<path d="M377.841 272.506C377.834 272.507 377.827 272.51 377.822 272.515C377.804 272.525 377.786 272.534 377.758 272.552C377.73 272.57 377.73 272.571 377.712 272.58C377.435 272.719 376.677 273.107 375.587 273.707" stroke="#171717" stroke-width="3" stroke-linecap="round" stroke-linejoin="round"/>
<path d="M375.587 273.707C376.677 273.153 377.425 272.746 377.712 272.58" stroke="#171717" stroke-width="3" stroke-linecap="round" stroke-linejoin="round"/>
<path d="M375.586 273.707C375.554 273.728 375.521 273.746 375.486 273.762" stroke="#171717" stroke-width="3" stroke-linecap="round" stroke-linejoin="round"/>
<path d="M367.523 249.375C359.163 255.259 343.912 267.425 348.715 275.11C353.944 283.479 369.527 276.745 375.485 273.761" stroke="#171717" stroke-width="3" stroke-linecap="round" stroke-linejoin="round"/>
<path d="M367.522 249.375C369.32 248.398 371.026 247.264 372.622 245.984C372.622 245.984 370.515 247.278 367.522 249.375Z" stroke="#171717" stroke-width="3" stroke-linecap="round" stroke-linejoin="round"/>
<path d="M490.205 170.413C499.147 160.913 514.648 142.682 508.246 139.486C497.817 134.267 446.956 141.657 433.912 171.651C420.868 201.645 438.623 145.139 431.049 144.271C423.475 143.403 401.313 164.261 402.616 175.571C403.919 186.881 396.962 155.157 383.051 159.711C369.14 164.265 380.451 219.911 380.451 219.911C380.451 219.911 338.282 216.863 344.804 240.344C349.293 256.519 360.812 253.083 367.528 249.379" stroke="#171717" stroke-width="3" stroke-linecap="round" stroke-linejoin="round"/>
<path d="M490.205 170.414C489.212 171.206 488.268 172.057 487.379 172.963C480.986 179.522 484.229 176.778 490.205 170.414Z" stroke="#171717" stroke-width="3" stroke-linecap="round" stroke-linejoin="round"/>
<path d="M401.747 365.112C401.747 365.112 399.531 348.355 397.775 326.12C394.718 287.674 393.037 232.85 406.523 219.908C423.28 203.835 468.276 199.608 499.623 210.588C508.131 213.562 515.632 217.663 521.294 222.947C547.815 247.731 539.548 272.506 563.894 260.553C588.24 248.6 557.8 203.6 548.678 198.93C539.556 194.26 530.416 188.612 518.684 191.217C506.952 193.822 561.278 173.832 555.2 163.393C549.436 153.509 508.542 155.726 490.205 170.414" stroke="#171717" stroke-width="3" stroke-linecap="round" stroke-linejoin="round"/>
<path d="M440.434 287.942C440.434 287.942 455.74 289.457 457.865 285.115C459.99 280.773 449.154 225.561 449.154 225.561L478.889 222.947" stroke="#171717" stroke-width="3" stroke-linecap="round" stroke-linejoin="round"/>
<path d="M447.389 313.373C447.389 313.373 431.306 323.373 415.658 310.324" stroke="#171717" stroke-width="3" stroke-linecap="round" stroke-linejoin="round"/>
<path d="M433.912 251.527L431.52 238.594" stroke="#171717" stroke-width="3" stroke-linecap="round" stroke-linejoin="round"/>
<path d="M474.344 251.527L471.729 238.594" stroke="#171717" stroke-width="3" stroke-linecap="round" stroke-linejoin="round"/>
<path d="M459.121 508.624C473.633 504.144 523.737 489.354 525.964 497.899C527.793 504.91 492.921 523.219 460.202 530.554C446.291 533.685 432.776 534.821 422.633 532.281" stroke="#171717" stroke-width="3" stroke-linecap="round" stroke-linejoin="round"/>
<path d="M457.91 508.999C458.104 508.934 458.317 508.869 458.529 508.805" stroke="#171717" stroke-width="3" stroke-linecap="round" stroke-linejoin="round"/>
<path d="M456.737 509.372C457.07 509.261 457.458 509.141 457.883 509.012" stroke="#171717" stroke-width="3" stroke-linecap="round" stroke-linejoin="round"/>
<path d="M455.573 509.742C455.666 509.705 455.786 509.668 455.915 509.631" stroke="#171717" stroke-width="3" stroke-linecap="round" stroke-linejoin="round"/>
<path d="M455.214 509.852C455.235 509.844 455.257 509.838 455.279 509.834C455.316 509.815 455.371 509.806 455.445 509.779" stroke="#171717" stroke-width="3" stroke-linecap="round" stroke-linejoin="round"/>
<path d="M455.444 509.779C455.37 509.806 455.315 509.815 455.278 509.834" stroke="#171717" stroke-width="3" stroke-linecap="round" stroke-linejoin="round"/>
<path d="M455.444 509.779C455.481 509.769 455.527 509.751 455.573 509.742" stroke="#171717" stroke-width="3" stroke-linecap="round" stroke-linejoin="round"/>
<path d="M455.915 509.631C455.786 509.677 455.666 509.714 455.573 509.742" stroke="#171717" stroke-width="3" stroke-linecap="round" stroke-linejoin="round"/>
<path d="M455.916 509.632C455.921 509.633 455.926 509.632 455.931 509.63C455.936 509.629 455.94 509.626 455.944 509.622C456.018 509.595 456.101 509.576 456.184 509.549C456.313 509.512 456.452 509.465 456.6 509.419C456.604 509.416 456.608 509.413 456.613 509.411C456.617 509.41 456.622 509.409 456.627 509.41C456.665 509.402 456.703 509.39 456.738 509.373" stroke="#171717" stroke-width="3" stroke-linecap="round" stroke-linejoin="round"/>
<path d="M457.883 509.012C457.448 509.15 457.07 509.27 456.737 509.372" stroke="#171717" stroke-width="3" stroke-linecap="round" stroke-linejoin="round"/>
<path d="M457.884 509.013C457.893 509.013 457.902 509.004 457.911 509.004" stroke="#171717" stroke-width="3" stroke-linecap="round" stroke-linejoin="round"/>
<path d="M458.529 508.809C458.307 508.882 458.104 508.947 457.91 509.003" stroke="#171717" stroke-width="3" stroke-linecap="round" stroke-linejoin="round"/>
<path d="M458.529 508.81C458.677 508.763 458.834 508.717 458.991 508.671C459.028 508.653 459.074 508.643 459.12 508.625" stroke="#171717" stroke-width="3" stroke-linecap="round" stroke-linejoin="round"/>
<path d="M466.835 482.353C486.797 477.401 533.344 466.732 536.069 474.233C539.09 482.546 475.675 503.349 459.121 508.624" stroke="#171717" stroke-width="3" stroke-linecap="round" stroke-linejoin="round"/>
<path d="M457.864 484.644C457.891 484.636 457.919 484.63 457.947 484.626C457.993 484.611 458.039 484.599 458.086 484.589C458.926 484.367 462.104 483.527 466.723 482.381" stroke="#171717" stroke-width="3" stroke-linecap="round" stroke-linejoin="round"/>
<path d="M466.723 482.381C462.104 483.591 458.936 484.386 458.086 484.589C458.03 484.607 457.986 484.617 457.947 484.626" stroke="#171717" stroke-width="3" stroke-linecap="round" stroke-linejoin="round"/>
<path d="M466.724 482.381L466.835 482.354" stroke="#171717" stroke-width="3" stroke-linecap="round" stroke-linejoin="round"/>
<path d="M410.837 487.536C410.837 487.536 422.615 488.986 428.259 478.557C433.903 468.128 432.61 428.564 450.429 419.871C468.248 411.178 487.323 412.962 491.018 422.643C492.348 426.107 491.785 428.592 490.51 430.343C488.247 433.502 483.702 434.324 483.702 434.324C483.702 434.324 470.862 432.587 466.086 441.659C461.31 450.731 461.061 462.47 461.061 462.47C461.061 462.47 536.069 441.659 536.069 455.459C536.069 463.403 487.379 476.983 466.835 482.35" stroke="#171717" stroke-width="3" stroke-linecap="round" stroke-linejoin="round"/>
<path d="M811.54 490.03C811.54 490.03 785.804 427.806 755.81 431.067C725.816 434.328 741.076 463.6 741.076 463.6" stroke="#171717" stroke-width="3" stroke-linecap="round" stroke-linejoin="round"/>
<path d="M619.059 740.89C619.059 740.89 568.345 742.09 562.803 724.817C557.261 707.544 593.603 705.686 593.603 705.686" stroke="#171717" stroke-width="3" stroke-linecap="round" stroke-linejoin="round"/>
<path d="M589.923 700.218C589.923 700.218 544.216 703.294 538.35 687.969C532.484 672.644 570.977 670.369 570.977 670.369" stroke="#171717" stroke-width="3" stroke-linecap="round" stroke-linejoin="round"/>
<path d="M569.407 663.49C569.407 663.49 534.767 662.215 534.767 648.848C534.767 635.481 560.539 625.699 560.539 625.699" stroke="#171717" stroke-width="3" stroke-linecap="round" stroke-linejoin="round"/>
<path d="M550.119 421.848V421.839C550.229 421.349 554.294 403.839 560.538 403.022C566.875 402.209 598.504 399.604 598.504 399.604L614.31 415.678" stroke="#171717" stroke-width="3" stroke-linecap="round" stroke-linejoin="round"/>
<path d="M731.6 399.463C730.005 393.93 727.206 388.819 723.402 384.497C719.598 380.174 714.885 376.748 709.6 374.463" stroke="#171717" stroke-width="3" stroke-linecap="round" stroke-linejoin="round"/>
<path d="M600.605 188.098L625.341 182.691" stroke="#171717" stroke-width="3" stroke-linecap="round" stroke-linejoin="round"/>
<path d="M588.754 162.527L652.422 86.6934" stroke="#171717" stroke-width="3" stroke-linecap="round" stroke-linejoin="round"/>
<path d="M567.357 139.919L571.921 119.705" stroke="#171717" stroke-width="3" stroke-linecap="round" stroke-linejoin="round"/>
<path d="M336.737 182.272L334.073 165.979" stroke="#171717" stroke-width="3" stroke-linecap="round" stroke-linejoin="round"/>
<path d="M326.769 177.13L343.269 173.439" stroke="#171717" stroke-width="3" stroke-linecap="round" stroke-linejoin="round"/>
<path d="M279.811 220.123C277.318 213.58 273.55 207.598 268.726 202.523" stroke="#171717" stroke-width="3" stroke-linecap="round" stroke-linejoin="round"/>
<path d="M265.466 218.167C270.486 212.687 276.183 207.866 282.419 203.822" stroke="#171717" stroke-width="3" stroke-linecap="round" stroke-linejoin="round"/>
<path d="M314.066 268.218L320.395 256.135C320.483 256.209 320.551 256.304 320.592 256.412C320.633 256.519 320.647 256.635 320.632 256.749C320.617 256.863 320.574 256.971 320.507 257.064C320.439 257.157 320.349 257.231 320.245 257.281" stroke="#171717" stroke-width="3" stroke-linecap="round" stroke-linejoin="round"/>
<path d="M321.6 266.338L310.514 259.168" stroke="#171717" stroke-width="3" stroke-linecap="round" stroke-linejoin="round"/>
<path d="M127.56 560.333C115.839 536.419 113.102 509.088 119.847 483.324" stroke="#171717" stroke-width="3" stroke-linecap="round" stroke-linejoin="round"/>
<path d="M573.447 410.723C577.406 409.574 581.501 408.957 585.622 408.889" stroke="#171717" stroke-width="3" stroke-linecap="round" stroke-linejoin="round"/>
<path d="M412.177 421.843L394.898 414.26V434.744L412.177 421.843Z" stroke="#171717" stroke-width="3" stroke-linecap="round" stroke-linejoin="round"/>
<path d="M373.381 458.124L359.362 446.061L350.885 467.578L373.381 458.124Z" stroke="#171717" stroke-width="3" stroke-linecap="round" stroke-linejoin="round"/>
<path d="M310.132 428.129V409.805L328.389 414.26L310.132 428.129Z" stroke="#171717" stroke-width="3" stroke-linecap="round" stroke-linejoin="round"/>
<path d="M275.898 448.018L271.659 467.579L247.533 450.626L275.898 448.018Z" stroke="#171717" stroke-width="3" stroke-linecap="round" stroke-linejoin="round"/>
<path d="M181.025 459.639L196.022 478.011L167.006 491.074L181.025 459.639Z" stroke="#171717" stroke-width="3" stroke-linecap="round" stroke-linejoin="round"/>
<path d="M379.25 513.875L397.507 531.236L371.099 548.432L379.25 513.875Z" stroke="#171717" stroke-width="3" stroke-linecap="round" stroke-linejoin="round"/>
<path d="M330.344 573.865L310.131 548.432L298.068 580.711L330.344 573.865Z" stroke="#171717" stroke-width="3" stroke-linecap="round" stroke-linejoin="round"/>
<path d="M234.167 513.875L255.359 520.968L230.581 550.064L234.167 513.875Z" stroke="#171717" stroke-width="3" stroke-linecap="round" stroke-linejoin="round"/>
<path d="M167.006 525.611L181.514 520.967L178.743 536.044L167.006 525.611Z" stroke="#171717" stroke-width="3" stroke-linecap="round" stroke-linejoin="round"/>
<path d="M648.223 399.603L632.139 390.311L625.342 405.091L648.223 399.603Z" stroke="#171717" stroke-width="3" stroke-linecap="round" stroke-linejoin="round"/>
<path d="M701.691 419L698.974 446.061L718.971 439.431L701.691 419Z" stroke="#171717" stroke-width="3" stroke-linecap="round" stroke-linejoin="round"/>
<path d="M482.341 384.224L482.492 373.139" stroke="#171717" stroke-width="3" stroke-linecap="round" stroke-linejoin="round"/>
<path d="M449.605 385.529L449.817 374.229" stroke="#171717" stroke-width="3" stroke-linecap="round" stroke-linejoin="round"/>
<path d="M416.96 385.964L417.551 374.658" stroke="#171717" stroke-width="3" stroke-linecap="round" stroke-linejoin="round"/>
<path d="M391.099 385.093L390.445 374.225" stroke="#171717" stroke-width="3" stroke-linecap="round" stroke-linejoin="round"/>
<path d="M586.085 755.579C576.325 754.768 567.241 750.27 560.681 743" stroke="#171717" stroke-width="3" stroke-linecap="round" stroke-linejoin="round"/>
<path d="M134.076 341.733V328.039" stroke="#171717" stroke-width="3" stroke-linecap="round" stroke-linejoin="round"/>
<path d="M140.915 335.719L128.185 336.44" stroke="#171717" stroke-width="3" stroke-linecap="round" stroke-linejoin="round"/>
<path d="M722.738 317.269L723.56 306.498" stroke="#171717" stroke-width="3" stroke-linecap="round" stroke-linejoin="round"/>
<path d="M715.09 312.631L730.732 310.621" stroke="#171717" stroke-width="3" stroke-linecap="round" stroke-linejoin="round"/>
<path d="M305.22 711.39L318.894 706.447" stroke="#171717" stroke-width="3" stroke-linecap="round" stroke-linejoin="round"/>
<path d="M312.938 717.354L308.716 702.771" stroke="#171717" stroke-width="3" stroke-linecap="round" stroke-linejoin="round"/>
<path d="M109.625 716.338L101.8 703.623" stroke="#171717" stroke-width="3" stroke-linecap="round" stroke-linejoin="round"/>
<path d="M98 716.478L110.877 705.916" stroke="#171717" stroke-width="3" stroke-linecap="round" stroke-linejoin="round"/>
<path d="M684.491 222.154C663.291 243.745 662.276 279.708 675.846 306.754C689.416 333.8 714.757 353.118 741.407 367.454C759.243 377.048 778.765 385.004 799.007 384.439C819.249 383.874 840.277 373 847.735 354.174C851.281 345.224 850.355 332.923 841.756 328.595C835.525 325.459 827.434 328.151 823.063 333.588C818.692 339.025 817.581 346.513 818.503 353.427C819.346 359.746 821.719 365.763 825.417 370.955C829.115 376.147 834.026 380.357 839.721 383.22C845.417 386.082 851.726 387.509 858.099 387.378C864.472 387.247 870.717 385.561 876.29 382.466C884.717 377.787 892.077 369.783 901.714 369.536C912.844 369.251 921.932 381.312 920.065 392.288C918.198 403.264 907.297 411.411 896.171 411.832" stroke="#171717" stroke-width="3" stroke-linecap="round" stroke-linejoin="round"/>
<path d="M413.239 632.826C418.005 638.943 421.406 646.01 423.214 653.551C425.022 661.093 425.194 668.933 423.72 676.547C422.245 684.16 419.157 691.37 414.664 697.69C410.171 704.011 404.376 709.296 397.671 713.191C393.125 715.831 387.971 717.843 382.732 717.413C377.493 716.983 372.245 713.584 370.966 708.485C369.333 701.97 375.299 695.094 382.005 694.722C388.711 694.35 394.963 699.457 397.154 705.806C399.345 712.155 397.987 719.33 394.799 725.242C384.255 744.794 357.981 749.609 342.946 765.962C326.44 783.916 328.355 815.547 346.907 831.377" stroke="#171717" stroke-width="3" stroke-linecap="round" stroke-linejoin="round"/>
<path d="M71.2236 660.071C77.8436 657.114 83.3877 652.183 87.0968 645.952C90.806 639.722 92.499 632.498 91.9439 625.269C91.3888 618.04 88.6129 611.159 83.9962 605.568C79.3794 599.977 73.1475 595.95 66.1536 594.037C59.9116 592.33 52.5876 592.618 47.7766 596.945C42.9656 601.272 42.6306 610.381 48.2616 613.569C54.0456 616.844 61.2256 612.269 65.2716 606.998C70.3032 600.227 73.3094 592.166 73.9406 583.753C74.5719 575.34 72.8023 566.92 68.8376 559.473C64.3596 551.367 57.4516 544.935 51.5006 537.839C45.5496 530.743 40.3126 522.301 40.3086 513.039C40.3046 503.777 47.4226 494.069 56.6816 494.226" stroke="#171717" stroke-width="3" stroke-linecap="round" stroke-linejoin="round"/>
<path d="M83.2739 297.698C77.9179 321.408 75.8009 348.744 91.0849 367.644C106.628 386.864 134.64 390.286 159.239 387.863C173.956 386.413 188.854 383.278 201.464 375.552C214.074 367.826 224.147 354.875 225.452 340.144C225.964 334.364 225.046 328.271 221.768 323.483C218.49 318.695 212.558 315.506 206.843 316.514C201.128 317.522 196.596 322.635 195.421 328.334C194.246 334.033 196.065 340.079 199.451 344.811C207.426 355.958 223.696 359.484 236.363 354.248C249.03 349.012 257.763 336.304 260.079 322.795C262.395 309.286 258.862 295.219 252.213 283.234" stroke="#171717" stroke-width="3" stroke-linecap="round" stroke-linejoin="round"/>
<path d="M190.806 195.02L192.762 179.371" stroke="#171717" stroke-width="3" stroke-linecap="round" stroke-linejoin="round"/>
<path d="M196.673 188.173L181.024 184.26" stroke="#171717" stroke-width="3" stroke-linecap="round" stroke-linejoin="round"/>
<path d="M608.625 245.7L602.336 248.79C602.146 248.883 601.932 248.916 601.723 248.884C601.514 248.852 601.32 248.756 601.167 248.611C601.014 248.465 600.909 248.276 600.866 248.069C600.824 247.862 600.846 247.647 600.929 247.453L603.698 241.016C603.779 240.828 603.802 240.62 603.765 240.419C603.728 240.218 603.632 240.033 603.49 239.886L598.608 234.859C598.46 234.707 598.363 234.514 598.328 234.305C598.294 234.097 598.324 233.882 598.416 233.691C598.507 233.501 598.654 233.342 598.838 233.238C599.022 233.134 599.234 233.088 599.445 233.108L606.423 233.752C606.626 233.771 606.831 233.729 607.011 233.632C607.191 233.534 607.337 233.386 607.433 233.205L610.704 227.005C610.803 226.818 610.956 226.665 611.144 226.568C611.332 226.471 611.546 226.434 611.755 226.462C611.965 226.49 612.161 226.582 612.318 226.724C612.474 226.867 612.582 227.054 612.629 227.261L614.172 234.096C614.217 234.295 614.32 234.477 614.468 234.618C614.617 234.759 614.803 234.853 615.005 234.888L621.905 236.088C622.113 236.124 622.305 236.223 622.455 236.372C622.606 236.521 622.707 236.712 622.745 236.92C622.783 237.128 622.757 237.342 622.67 237.535C622.583 237.728 622.438 237.889 622.257 237.997L616.233 241.577C616.056 241.681 615.914 241.835 615.825 242.019C615.736 242.204 615.704 242.411 615.733 242.614L616.733 249.55C616.763 249.759 616.728 249.973 616.633 250.162C616.538 250.351 616.387 250.506 616.201 250.607C616.015 250.708 615.803 250.749 615.593 250.725C615.383 250.702 615.185 250.614 615.026 250.475L609.76 245.852C609.607 245.717 609.417 245.631 609.215 245.604C609.013 245.577 608.808 245.61 608.625 245.7V245.7Z" fill="#171717"/>
<path d="M661.589 426.5H639.745L641.375 437.585H666.875L661.589 426.5Z" stroke="#171717" stroke-width="3" stroke-linecap="round" stroke-linejoin="round"/>
<g opacity="0.1">
<path d="M490.57 206.924C484.07 203.855 475.197 203.318 468.07 202.508C459.917 201.565 451.678 201.632 443.54 202.708C430.652 204.474 417.059 209.208 407.464 218.233C383.898 240.411 391.594 277.033 393.595 305.671L395.595 334.271L396.559 348.08C396.915 353.168 396.596 359.063 398.45 363.858C400.874 370.129 410.944 371.621 412.733 363.858C413.933 358.658 413.026 353.347 412.633 348.08L411.61 334.271L409.418 304.68C408.701 295.002 407.932 285.325 407.275 275.643C406.692 267.051 406.175 258.211 407.66 249.682C410.341 234.296 420.798 222.439 435.239 216.582C443.386 213.276 452.601 212.076 461.316 211.743C466.116 211.559 471.003 211.322 475.793 211.535C480.504 211.744 485.293 212.566 489.95 211.635C492.05 211.214 492.543 207.857 490.566 206.923L490.57 206.924Z" fill="#171717"/>
</g>
<g opacity="0.1">
<path d="M377.5 366.493C372.052 375.893 372.425 385.731 374.554 396.093L381.515 386.955C356.958 385.637 332.186 386.821 307.683 388.677C285.344 390.369 262.883 392.726 241.058 397.955C201.292 407.483 163.08 428.472 143.112 465.548C133.679 483.064 129.337 502.898 132.164 522.681C134.854 541.502 144.264 558.705 157.03 572.607C186.487 604.69 230.465 615.054 272.471 616.578C324.763 618.478 379.007 612.167 428.265 594.062C432.682 592.438 435.677 588.149 434.354 583.337C433.185 579.082 428.071 575.616 423.629 577.247C382.349 592.408 338.599 598.447 294.781 599.253C256.106 599.965 213.607 596.634 181.963 571.889C168.944 561.709 157.743 548.098 152.409 532.289C146.921 516.031 147.988 499.123 154.1 483.198C167.752 447.629 202.023 426.298 237.16 416.212C283.788 402.826 333.46 403.212 381.515 401.388C386.839 401.188 390.699 395.364 387.748 390.526C384.034 384.438 384.268 376.736 385.639 369.917C386.6 365.135 380.145 361.917 377.5 366.485V366.493Z" fill="#171717"/>
</g>
<g opacity="0.1">
<path d="M473.609 564.812C483.232 567.542 494.295 564.763 503.782 562.512C513.058 560.312 524.762 557.712 532.582 552.052C539.6 546.973 535.565 535.863 526.582 537.83C521.837 538.869 517.339 541.31 512.75 542.922C508.392 544.456 503.976 545.81 499.501 546.984C490.463 549.345 480.692 549.826 472.164 553.762C467.257 556.027 468.948 563.489 473.609 564.81V564.812Z" fill="#171717"/>
</g>
<g opacity="0.1">
<path d="M534.145 513.125C531.509 519.725 534.667 527.001 536.737 533.383C538.878 539.983 541.061 546.565 543.222 553.156C545.383 559.747 547.604 566.323 549.822 572.898C552.11 579.693 553.622 587.515 558.229 593.098C562.817 598.656 571.484 593.819 571.672 587.529C571.88 580.587 567.795 573.02 565.519 566.521C563.222 559.965 560.906 553.417 558.569 546.876C556.221 540.338 553.951 533.766 551.522 527.257C549.159 520.923 547.211 513.895 541.034 510.326C538.177 508.676 535.255 510.356 534.148 513.126L534.145 513.125Z" fill="#171717"/>
</g>
<g opacity="0.1">
<path d="M567.316 632.918C566.816 642.201 566.061 650.659 568.216 659.887C570.344 668.8 573.307 677.492 577.066 685.849C580.61 693.856 584.822 701.55 589.657 708.849C594.496 716.149 600.404 726.169 608.157 730.627C615.251 734.704 622.1 726.753 618.803 719.98C616.855 715.98 613.223 712.803 610.411 709.38C608.079 706.544 605.897 703.595 603.817 700.57C599.016 693.58 594.793 686.21 591.191 678.533C587.78 671.213 584.9 663.658 582.573 655.924C580.133 647.883 576.416 640.067 574.311 631.966C573.27 627.957 567.526 628.991 567.311 632.913L567.316 632.918Z" fill="#171717"/>
</g>
</g>
<defs>
<linearGradient id="paint0_linear_510_1394" x1="472.492" y1="731.496" x2="472.119" y2="854.547" gradientUnits="userSpaceOnUse">
<stop stop-color="#72DEFF"/>
<stop offset="1" stop-color="#1A9AEF"/>
</linearGradient>
<linearGradient id="paint1_linear_510_1394" x1="430.813" y1="364.955" x2="430.535" y2="615.818" gradientUnits="userSpaceOnUse">
<stop stop-color="#72DEFF"/>
<stop offset="1" stop-color="#1A9AEF"/>
</linearGradient>
<linearGradient id="paint2_linear_510_1394" x1="149.237" y1="198.93" x2="148.903" y2="321.495" gradientUnits="userSpaceOnUse">
<stop stop-color="#72DEFF"/>
<stop offset="1" stop-color="#1A9AEF"/>
</linearGradient>
<clipPath id="clip0_510_1394">
<rect width="884" height="791" fill="white" transform="translate(38 85)"/>
</clipPath>
</defs>
</svg>
